<?xml version="1.0" encoding="UTF-8" standalone="no"?>
<!DOCTYPE svg PUBLIC "-//W3C//DTD SVG 1.1//EN" "http://www.w3.org/Graphics/SVG/1.1/DTD/svg11.dtd">
<svg width="36" height="36" viewBox="0 0 36 36" version="1.1" xmlns="http://www.w3.org/2000/svg" xmlns:xlink="http://www.w3.org/1999/xlink" xml:space="preserve" style="fill-rule:evenodd;clip-rule:evenodd;stroke-linejoin:round;stroke-miterlimit:1.41421;"><path d="M31,32.23c1.097,0 2,-0.903 2,-2l0,-24.46c0,-0.003 0,-0.005 0,-0.008c0,-1.097 -0.903,-2 -2,-2c-0.42,0 -0.829,0.132 -1.17,0.378l-17.06,12.24c-0.523,0.375 -0.834,0.981 -0.834,1.625c0,0.644 0.311,1.25 0.834,1.625l17.06,12.23c0.342,0.243 0.751,0.372 1.17,0.37l0,0Zm0,-26.46l0,24.46l-17.07,-12.23l17.07,-12.23Z" style="fill:rgb(255,255,255);fill-rule:nonzero;"/><path d="M5,32l3,0c1.097,0 2,-0.903 2,-2l0,-24c0,-1.097 -0.903,-2 -2,-2l-3,0c-1.097,0 -2,0.903 -2,2l0,24c0,1.097 0.903,2 2,2Zm3,-26l0,24l-3,0l0,-24l3,0Z" style="fill:rgb(255,255,255);fill-rule:nonzero;"/><rect x="0" y="0" width="36" height="36" style="fill:#000010;fill-opacity:0;"/></svg>